<?xml version="1.0" encoding="UTF-8" standalone="no"?>
<!DOCTYPE svg PUBLIC "-//W3C//DTD SVG 1.1//EN"
 "http://www.w3.org/Graphics/SVG/1.1/DTD/svg11.dtd">
<!-- Generated by graphviz version 15.1.0 (20260618.0150)
 -->
<!-- Title: Mesmerize — AWS Reference Deployment
(Dev / Staging / Prod same shape · zero&#45;PHI on servers · Bridge tenancy default) Pages: 1 -->
<svg width="1072pt" height="1761pt"
 viewBox="0.00 0.00 1072.00 1761.00" xmlns="http://www.w3.org/2000/svg" xmlns:xlink="http://www.w3.org/1999/xlink">
<g id="graph0" class="graph" transform="scale(1 1) rotate(0) translate(36 1725)">
<title>Mesmerize — AWS Reference Deployment
(Dev / Staging / Prod same shape · zero&#45;PHI on servers · Bridge tenancy default)</title>
<polygon fill="white" stroke="none" points="-36,36 -36,-1725 1035.9,-1725 1035.9,36 -36,36"/>
<text xml:space="preserve" text-anchor="middle" x="499.95" y="-20.7" font-family="Helvetica,sans-Serif" font-size="14.00" fill="#2d3436">Mesmerize — AWS Reference Deployment</text>
<text xml:space="preserve" text-anchor="middle" x="499.95" y="-5.7" font-family="Helvetica,sans-Serif" font-size="14.00" fill="#2d3436">(Dev / Staging / Prod same shape · zero&#45;PHI on servers · Bridge tenancy default)</text>
<g id="clust1" class="cluster">
<title>cluster_People</title>
<path fill="#e5f5fd" stroke="#aeb6be" d="M20,-434C20,-434 112.8,-434 112.8,-434 118.8,-434 124.8,-440 124.8,-446 124.8,-446 124.8,-1043 124.8,-1043 124.8,-1049 118.8,-1055 112.8,-1055 112.8,-1055 20,-1055 20,-1055 14,-1055 8,-1049 8,-1043 8,-1043 8,-446 8,-446 8,-440 14,-434 20,-434"/>
<text xml:space="preserve" text-anchor="middle" x="35.12" y="-1039.6" font-family="Sans-Serif" font-size="12.00" fill="#2d3436">People</text>
</g>
<g id="clust2" class="cluster">
<title>cluster_External (outside VPC)</title>
<path fill="#e5f5fd" stroke="#aeb6be" d="M862.4,-911C862.4,-911 976.65,-911 976.65,-911 982.65,-911 988.65,-917 988.65,-923 988.65,-923 988.65,-1669 988.65,-1669 988.65,-1675 982.65,-1681 976.65,-1681 976.65,-1681 862.4,-1681 862.4,-1681 856.4,-1681 850.4,-1675 850.4,-1669 850.4,-1669 850.4,-923 850.4,-923 850.4,-917 856.4,-911 862.4,-911"/>
<text xml:space="preserve" text-anchor="middle" x="919.52" y="-1665.6" font-family="Sans-Serif" font-size="12.00" fill="#2d3436">External (outside VPC)</text>
</g>
<g id="clust3" class="cluster">
<title>cluster_Edge</title>
<path fill="#e5f5fd" stroke="#aeb6be" d="M193.8,-661C193.8,-661 460.4,-661 460.4,-661 466.4,-661 472.4,-667 472.4,-673 472.4,-673 472.4,-852 472.4,-852 472.4,-858 466.4,-864 460.4,-864 460.4,-864 193.8,-864 193.8,-864 187.8,-864 181.8,-858 181.8,-852 181.8,-852 181.8,-673 181.8,-673 181.8,-667 187.8,-661 193.8,-661"/>
<text xml:space="preserve" text-anchor="middle" x="204.05" y="-848.6" font-family="Sans-Serif" font-size="12.00" fill="#2d3436">Edge</text>
</g>
<g id="clust4" class="cluster">
<title>cluster_ECS Fargate (multi&#45;AZ)
logical services; may co&#45;locate in pilot</title>
<path fill="#e5f5fd" stroke="#aeb6be" d="M577.15,-452C577.15,-452 770.15,-452 770.15,-452 776.15,-452 782.15,-458 782.15,-464 782.15,-464 782.15,-1102 782.15,-1102 782.15,-1108 776.15,-1114 770.15,-1114 770.15,-1114 577.15,-1114 577.15,-1114 571.15,-1114 565.15,-1108 565.15,-1102 565.15,-1102 565.15,-464 565.15,-464 565.15,-458 571.15,-452 577.15,-452"/>
<text xml:space="preserve" text-anchor="middle" x="673.65" y="-1098.6" font-family="Sans-Serif" font-size="12.00" fill="#2d3436">ECS Fargate (multi&#45;AZ)</text>
<text xml:space="preserve" text-anchor="middle" x="673.65" y="-1085.85" font-family="Sans-Serif" font-size="12.00" fill="#2d3436">logical services; may co&#45;locate in pilot</text>
</g>
<g id="clust5" class="cluster">
<title>cluster_Data &amp; messaging (private)</title>
<path fill="#e5f5fd" stroke="#aeb6be" d="M851.15,-46C851.15,-46 987.9,-46 987.9,-46 993.9,-46 999.9,-52 999.9,-58 999.9,-58 999.9,-891 999.9,-891 999.9,-897 993.9,-903 987.9,-903 987.9,-903 851.15,-903 851.15,-903 845.15,-903 839.15,-897 839.15,-891 839.15,-891 839.15,-58 839.15,-58 839.15,-52 845.15,-46 851.15,-46"/>
<text xml:space="preserve" text-anchor="middle" x="919.52" y="-887.6" font-family="Sans-Serif" font-size="12.00" fill="#2d3436">Data &amp; messaging (private)</text>
</g>
<g id="clust6" class="cluster">
<title>cluster_CI/CD</title>
<path fill="#e5f5fd" stroke="#aeb6be" d="M193.8,-1166C193.8,-1166 460.4,-1166 460.4,-1166 466.4,-1166 472.4,-1172 472.4,-1178 472.4,-1178 472.4,-1327 472.4,-1327 472.4,-1333 466.4,-1339 460.4,-1339 460.4,-1339 193.8,-1339 193.8,-1339 187.8,-1339 181.8,-1333 181.8,-1327 181.8,-1327 181.8,-1178 181.8,-1178 181.8,-1172 187.8,-1166 193.8,-1166"/>
<text xml:space="preserve" text-anchor="middle" x="206.3" y="-1323.6" font-family="Sans-Serif" font-size="12.00" fill="#2d3436">CI/CD</text>
</g>
<!-- 690ea04a66364f67ab50e5ea5eafa969 -->
<g id="node1" class="node">
<title>690ea04a66364f67ab50e5ea5eafa969</title>
<image xlink:href="/Users/sasaaleksandrov/mesmerize/.venv-diagrams/lib/python3.12/site-packages/resources/onprem/client/users.png" width="100.8px" height="100.8px" preserveAspectRatio="xMinYMin meet" x="16" y="-993.4"/>
<text xml:space="preserve" text-anchor="middle" x="66.4" y="-873.75" font-family="Helvetica,sans-Serif" font-size="11.00" fill="#2d3436">Clinicians</text>
<text xml:space="preserve" text-anchor="middle" x="66.4" y="-861.75" font-family="Helvetica,sans-Serif" font-size="11.00" fill="#2d3436">(Athena SMART)</text>
</g>
<!-- 1547e19a25e544ed80a2b1ca9a8f312b -->
<g id="node4" class="node">
<title>1547e19a25e544ed80a2b1ca9a8f312b</title>
<image xlink:href="/Users/sasaaleksandrov/mesmerize/.venv-diagrams/lib/python3.12/site-packages/resources/onprem/compute/server.png" width="100.8px" height="100.8px" preserveAspectRatio="xMinYMin meet" x="868.625" y="-1619.4"/>
<text xml:space="preserve" text-anchor="middle" x="919.02" y="-1499.75" font-family="Helvetica,sans-Serif" font-size="11.00" fill="#2d3436">athenahealth</text>
<text xml:space="preserve" text-anchor="middle" x="919.02" y="-1487.75" font-family="Helvetica,sans-Serif" font-size="11.00" fill="#2d3436">SMART / FHIR</text>
</g>
<!-- 690ea04a66364f67ab50e5ea5eafa969&#45;&gt;1547e19a25e544ed80a2b1ca9a8f312b -->
<g id="edge1" class="edge">
<title>690ea04a66364f67ab50e5ea5eafa969&#45;&gt;1547e19a25e544ed80a2b1ca9a8f312b</title>
<path fill="none" stroke="#7b8894" d="M74.4,-1025.6C90.31,-1186.43 136.12,-1526 239.2,-1526 239.2,-1526 239.2,-1526 674.15,-1526 737.57,-1526 808.87,-1540.28 857.92,-1552.38"/>
<polygon fill="#7b8894" stroke="#7b8894" points="856.94,-1555.74 867.49,-1554.79 858.65,-1548.95 856.94,-1555.74"/>
<text xml:space="preserve" text-anchor="middle" x="414" y="-1527.15" font-family="Sans-Serif" font-size="13.00" fill="#2d3436">EHR launch</text>
</g>
<!-- 8183f02a13704fcf94707615e874e65e -->
<g id="node8" class="node">
<title>8183f02a13704fcf94707615e874e65e</title>
<image xlink:href="/Users/sasaaleksandrov/mesmerize/.venv-diagrams/lib/python3.12/site-packages/resources/aws/network/cloudfront.png" width="100.8px" height="100.8px" preserveAspectRatio="xMinYMin meet" x="189.8" y="-802.4"/>
<text xml:space="preserve" text-anchor="middle" x="240.2" y="-682.75" font-family="Helvetica,sans-Serif" font-size="11.00" fill="#2d3436">CloudFront</text>
<text xml:space="preserve" text-anchor="middle" x="240.2" y="-670.75" font-family="Helvetica,sans-Serif" font-size="11.00" fill="#2d3436">SMART + media</text>
</g>
<!-- 690ea04a66364f67ab50e5ea5eafa969&#45;&gt;8183f02a13704fcf94707615e874e65e -->
<g id="edge3" class="edge">
<title>690ea04a66364f67ab50e5ea5eafa969&#45;&gt;8183f02a13704fcf94707615e874e65e</title>
<path fill="none" stroke="#7b8894" d="M116.63,-888.27C137.12,-865.49 161.03,-838.9 182.27,-815.29"/>
<polygon fill="#7b8894" stroke="#7b8894" points="184.86,-817.64 188.95,-807.87 179.66,-812.96 184.86,-817.64"/>
</g>
<!-- 7ac63f79140b490a855ebc611485a406 -->
<g id="node2" class="node">
<title>7ac63f79140b490a855ebc611485a406</title>
<image xlink:href="/Users/sasaaleksandrov/mesmerize/.venv-diagrams/lib/python3.12/site-packages/resources/onprem/client/user.png" width="100.8px" height="100.8px" preserveAspectRatio="xMinYMin meet" x="16" y="-575.4"/>
<text xml:space="preserve" text-anchor="middle" x="66.4" y="-455.75" font-family="Helvetica,sans-Serif" font-size="11.00" fill="#2d3436">Clinic devices</text>
<text xml:space="preserve" text-anchor="middle" x="66.4" y="-443.75" font-family="Helvetica,sans-Serif" font-size="11.00" fill="#2d3436">(Esper PWA)</text>
</g>
<!-- 8cd8e827fe67455a87c8339427752af0 -->
<g id="node9" class="node">
<title>8cd8e827fe67455a87c8339427752af0</title>
<image xlink:href="/Users/sasaaleksandrov/mesmerize/.venv-diagrams/lib/python3.12/site-packages/resources/aws/network/elb-application-load-balancer.png" width="100.8px" height="100.8px" preserveAspectRatio="xMinYMin meet" x="363.6" y="-802.4"/>
<text xml:space="preserve" text-anchor="middle" x="414" y="-682.75" font-family="Helvetica,sans-Serif" font-size="11.00" fill="#2d3436">ALB HTTPS</text>
<text xml:space="preserve" text-anchor="middle" x="414" y="-670.75" font-family="Helvetica,sans-Serif" font-size="11.00" fill="#2d3436">(+ Socket.io sticky)</text>
</g>
<!-- 7ac63f79140b490a855ebc611485a406&#45;&gt;8cd8e827fe67455a87c8339427752af0 -->
<g id="edge4" class="edge">
<title>7ac63f79140b490a855ebc611485a406&#45;&gt;8cd8e827fe67455a87c8339427752af0</title>
<path fill="none" stroke="#7b8894" d="M116.37,-536.91C163.91,-550.08 236.61,-574.59 290.6,-612.5 314.81,-629.5 337.4,-652.25 356.41,-674.43"/>
<polygon fill="#7b8894" stroke="#7b8894" points="353.71,-676.66 362.82,-682.07 359.07,-672.16 353.71,-676.66"/>
<text xml:space="preserve" text-anchor="middle" x="240.2" y="-613.65" font-family="Sans-Serif" font-size="13.00" fill="#2d3436">HTTPS / WS</text>
</g>
<!-- 7a0396c420344f44aad015331d10c81a -->
<g id="node3" class="node">
<title>7a0396c420344f44aad015331d10c81a</title>
<image xlink:href="/Users/sasaaleksandrov/mesmerize/.venv-diagrams/lib/python3.12/site-packages/resources/onprem/client/user.png" width="100.8px" height="100.8px" preserveAspectRatio="xMinYMin meet" x="16" y="-784.4"/>
<text xml:space="preserve" text-anchor="middle" x="66.4" y="-664.75" font-family="Helvetica,sans-Serif" font-size="11.00" fill="#2d3436">Admins</text>
<text xml:space="preserve" text-anchor="middle" x="66.4" y="-652.75" font-family="Helvetica,sans-Serif" font-size="11.00" fill="#2d3436">(Command Center)</text>
</g>
<!-- 68e9b3aab78745589285cae33af45b43 -->
<g id="node5" class="node">
<title>68e9b3aab78745589285cae33af45b43</title>
<image xlink:href="/Users/sasaaleksandrov/mesmerize/.venv-diagrams/lib/python3.12/site-packages/resources/saas/identity/auth0.png" width="100.8px" height="112.195px" preserveAspectRatio="xMinYMin meet" x="868.625" y="-1431.1"/>
<text xml:space="preserve" text-anchor="middle" x="919.02" y="-1308.15" font-family="Helvetica,sans-Serif" font-size="11.00" fill="#2d3436">Auth0</text>
</g>
<!-- 7a0396c420344f44aad015331d10c81a&#45;&gt;68e9b3aab78745589285cae33af45b43 -->
<g id="edge5" class="edge">
<title>7a0396c420344f44aad015331d10c81a&#45;&gt;68e9b3aab78745589285cae33af45b43</title>
<path fill="none" stroke="#7b8894" d="M116.34,-816.66C119.56,-824.06 122.45,-831.57 124.8,-839 159.13,-947.75 114.76,-1256.75 181.8,-1349 198.26,-1371.66 211.19,-1375 239.2,-1375 239.2,-1375 239.2,-1375 674.15,-1375 736.67,-1375 808.2,-1375 857.55,-1375"/>
<polygon fill="#7b8894" stroke="#7b8894" points="857.46,-1378.5 867.46,-1375 857.46,-1371.5 857.46,-1378.5"/>
</g>
<!-- 7a0396c420344f44aad015331d10c81a&#45;&gt;8cd8e827fe67455a87c8339427752af0 -->
<g id="edge6" class="edge">
<title>7a0396c420344f44aad015331d10c81a&#45;&gt;8cd8e827fe67455a87c8339427752af0</title>
<path fill="none" stroke="#7b8894" d="M116.53,-686.11C135.39,-670.86 158.11,-655.91 181.8,-648 227.67,-632.68 245.21,-631.32 290.6,-648 314.32,-656.72 336.58,-672.29 355.45,-688.78"/>
<polygon fill="#7b8894" stroke="#7b8894" points="352.99,-691.27 362.75,-695.39 357.68,-686.08 352.99,-691.27"/>
</g>
<!-- 1547e19a25e544ed80a2b1ca9a8f312b&#45;&gt;8183f02a13704fcf94707615e874e65e -->
<g id="edge2" class="edge">
<title>1547e19a25e544ed80a2b1ca9a8f312b&#45;&gt;8183f02a13704fcf94707615e874e65e</title>
<path fill="none" stroke="#7b8894" d="M868.66,-1521.71C787.26,-1444.07 619.25,-1285.31 472.4,-1156 425.09,-1114.34 400.41,-1116.18 363.6,-1065 315.84,-998.59 283.68,-911.05 264.36,-845.43"/>
<polygon fill="#7b8894" stroke="#7b8894" points="267.81,-844.78 261.67,-836.14 261.09,-846.72 267.81,-844.78"/>
<text xml:space="preserve" text-anchor="middle" x="518.77" y="-1214.24" font-family="Sans-Serif" font-size="13.00" fill="#2d3436">iframe</text>
</g>
<!-- bb1b6d3fd8da4b94a8f1c73ee67149fd -->
<g id="node6" class="node">
<title>bb1b6d3fd8da4b94a8f1c73ee67149fd</title>
<image xlink:href="/Users/sasaaleksandrov/mesmerize/.venv-diagrams/lib/python3.12/site-packages/resources/onprem/compute/server.png" width="100.8px" height="100.8px" preserveAspectRatio="xMinYMin meet" x="868.625" y="-1037.4"/>
<text xml:space="preserve" text-anchor="middle" x="919.02" y="-920.15" font-family="Helvetica,sans-Serif" font-size="11.00" fill="#2d3436">Esper MDM</text>
</g>
<!-- 95441cc5a25c4140b385bf73336ce673 -->
<g id="node7" class="node">
<title>95441cc5a25c4140b385bf73336ce673</title>
<image xlink:href="/Users/sasaaleksandrov/mesmerize/.venv-diagrams/lib/python3.12/site-packages/resources/onprem/compute/server.png" width="100.8px" height="100.8px" preserveAspectRatio="xMinYMin meet" x="868.625" y="-1231.4"/>
<text xml:space="preserve" text-anchor="middle" x="919.02" y="-1111.75" font-family="Helvetica,sans-Serif" font-size="11.00" fill="#2d3436">Sanity /</text>
<text xml:space="preserve" text-anchor="middle" x="919.02" y="-1099.75" font-family="Helvetica,sans-Serif" font-size="11.00" fill="#2d3436">BioDigital / MJH</text>
</g>
<!-- 8183f02a13704fcf94707615e874e65e&#45;&gt;8cd8e827fe67455a87c8339427752af0 -->
<g id="edge7" class="edge">
<title>8183f02a13704fcf94707615e874e65e&#45;&gt;8cd8e827fe67455a87c8339427752af0</title>
<path fill="none" stroke="#7b8894" d="M290.43,-752C309.75,-752 332.12,-752 352.41,-752"/>
<polygon fill="#7b8894" stroke="#7b8894" points="352.25,-755.5 362.25,-752 352.25,-748.5 352.25,-755.5"/>
</g>
<!-- b1b14e71d17f48b78e3241d7ad99e410 -->
<g id="node10" class="node">
<title>b1b14e71d17f48b78e3241d7ad99e410</title>
<image xlink:href="/Users/sasaaleksandrov/mesmerize/.venv-diagrams/lib/python3.12/site-packages/resources/aws/compute/elastic-container-service.png" width="100.8px" height="100.8px" preserveAspectRatio="xMinYMin meet" x="622.75" y="-1025.4"/>
<text xml:space="preserve" text-anchor="middle" x="673.15" y="-903.35" font-family="Helvetica,sans-Serif" font-size="11.00" fill="#2d3436">API services</text>
<text xml:space="preserve" text-anchor="middle" x="673.15" y="-891.35" font-family="Helvetica,sans-Serif" font-size="11.00" fill="#2d3436">session · content · org</text>
<text xml:space="preserve" text-anchor="middle" x="673.15" y="-879.35" font-family="Helvetica,sans-Serif" font-size="11.00" fill="#2d3436">billing · engagement · ads</text>
</g>
<!-- 8cd8e827fe67455a87c8339427752af0&#45;&gt;b1b14e71d17f48b78e3241d7ad99e410 -->
<g id="edge8" class="edge">
<title>8cd8e827fe67455a87c8339427752af0&#45;&gt;b1b14e71d17f48b78e3241d7ad99e410</title>
<path fill="none" stroke="#7b8894" d="M464.28,-794.73C507.16,-831.92 569.35,-885.85 614.53,-925.03"/>
<polygon fill="#7b8894" stroke="#7b8894" points="612.05,-927.51 621.9,-931.42 616.63,-922.22 612.05,-927.51"/>
</g>
<!-- fbb0e5d39e3343138dabc0d25c300551 -->
<g id="node11" class="node">
<title>fbb0e5d39e3343138dabc0d25c300551</title>
<image xlink:href="/Users/sasaaleksandrov/mesmerize/.venv-diagrams/lib/python3.12/site-packages/resources/aws/compute/elastic-container-service.png" width="100.8px" height="100.8px" preserveAspectRatio="xMinYMin meet" x="622.75" y="-593.4"/>
<text xml:space="preserve" text-anchor="middle" x="673.15" y="-473.75" font-family="Helvetica,sans-Serif" font-size="11.00" fill="#2d3436">device&#45;realtime</text>
<text xml:space="preserve" text-anchor="middle" x="673.15" y="-461.75" font-family="Helvetica,sans-Serif" font-size="11.00" fill="#2d3436">Socket.io</text>
</g>
<!-- 8cd8e827fe67455a87c8339427752af0&#45;&gt;fbb0e5d39e3343138dabc0d25c300551 -->
<g id="edge9" class="edge">
<title>8cd8e827fe67455a87c8339427752af0&#45;&gt;fbb0e5d39e3343138dabc0d25c300551</title>
<path fill="none" stroke="#7b8894" d="M461.86,-669.25C473.13,-653.64 486.1,-638.35 500.4,-626 533.1,-597.74 577.09,-576.73 612.37,-562.91"/>
<polygon fill="#7b8894" stroke="#7b8894" points="613.5,-566.22 621.6,-559.39 611.01,-559.68 613.5,-566.22"/>
</g>
<!-- b1b14e71d17f48b78e3241d7ad99e410&#45;&gt;68e9b3aab78745589285cae33af45b43 -->
<g id="edge21" class="edge">
<title>b1b14e71d17f48b78e3241d7ad99e410&#45;&gt;68e9b3aab78745589285cae33af45b43</title>
<path fill="none" stroke="#7b8894" d="M718.54,-1071.91C749.05,-1134.77 792.38,-1217.27 839.15,-1285 845.93,-1294.82 853.64,-1304.76 861.51,-1314.27"/>
<polygon fill="#7b8894" stroke="#7b8894" points="858.67,-1316.33 867.8,-1321.72 864.02,-1311.82 858.67,-1316.33"/>
</g>
<!-- b1b14e71d17f48b78e3241d7ad99e410&#45;&gt;95441cc5a25c4140b385bf73336ce673 -->
<g id="edge19" class="edge">
<title>b1b14e71d17f48b78e3241d7ad99e410&#45;&gt;95441cc5a25c4140b385bf73336ce673</title>
<path fill="none" stroke="#7b8894" d="M723.5,-1016.69C763,-1050.05 818.48,-1096.92 860.09,-1132.06"/>
<polygon fill="#7b8894" stroke="#7b8894" points="857.69,-1134.62 867.59,-1138.4 862.21,-1129.27 857.69,-1134.62"/>
</g>
<!-- c402684fdf4942c2a7c30594123f3868 -->
<g id="node13" class="node">
<title>c402684fdf4942c2a7c30594123f3868</title>
<image xlink:href="/Users/sasaaleksandrov/mesmerize/.venv-diagrams/lib/python3.12/site-packages/resources/aws/database/rds.png" width="100.8px" height="100.8px" preserveAspectRatio="xMinYMin meet" x="868.625" y="-381.4"/>
<text xml:space="preserve" text-anchor="middle" x="919.02" y="-259.35" font-family="Helvetica,sans-Serif" font-size="11.00" fill="#2d3436">RDS PostgreSQL 16</text>
<text xml:space="preserve" text-anchor="middle" x="919.02" y="-247.35" font-family="Helvetica,sans-Serif" font-size="11.00" fill="#2d3436">Bridge + tenantId</text>
<text xml:space="preserve" text-anchor="middle" x="919.02" y="-235.35" font-family="Helvetica,sans-Serif" font-size="11.00" fill="#2d3436">(Silo DBs optional)</text>
</g>
<!-- b1b14e71d17f48b78e3241d7ad99e410&#45;&gt;c402684fdf4942c2a7c30594123f3868 -->
<g id="edge10" class="edge">
<title>b1b14e71d17f48b78e3241d7ad99e410&#45;&gt;c402684fdf4942c2a7c30594123f3868</title>
<path fill="none" stroke="#7b8894" d="M723.4,-933.45C744.96,-912.49 768.42,-885.31 782.15,-856 820.89,-773.3 806.62,-534.34 839.15,-449 845.13,-433.32 853.5,-417.64 862.58,-403.06"/>
<polygon fill="#7b8894" stroke="#7b8894" points="865.35,-405.23 867.81,-394.92 859.46,-401.44 865.35,-405.23"/>
</g>
<!-- 54ad6885efb04d509062cd80c2736434 -->
<g id="node15" class="node">
<title>54ad6885efb04d509062cd80c2736434</title>
<image xlink:href="/Users/sasaaleksandrov/mesmerize/.venv-diagrams/lib/python3.12/site-packages/resources/aws/storage/simple-storage-service-s3.png" width="100.8px" height="100.8px" preserveAspectRatio="xMinYMin meet" x="868.625" y="-841.4"/>
<text xml:space="preserve" text-anchor="middle" x="919.02" y="-721.75" font-family="Helvetica,sans-Serif" font-size="11.00" fill="#2d3436">S3</text>
<text xml:space="preserve" text-anchor="middle" x="919.02" y="-709.75" font-family="Helvetica,sans-Serif" font-size="11.00" fill="#2d3436">{tenantId}/{clinicId}/…</text>
</g>
<!-- b1b14e71d17f48b78e3241d7ad99e410&#45;&gt;54ad6885efb04d509062cd80c2736434 -->
<g id="edge17" class="edge">
<title>b1b14e71d17f48b78e3241d7ad99e410&#45;&gt;54ad6885efb04d509062cd80c2736434</title>
<path fill="none" stroke="#7b8894" d="M723.45,-968.53C751.14,-963.04 785.22,-953.05 811.15,-935 814.95,-932.36 838.24,-901.14 862.12,-868.45"/>
<polygon fill="#7b8894" stroke="#7b8894" points="864.9,-870.58 867.97,-860.43 859.25,-866.45 864.9,-870.58"/>
</g>
<!-- bf05f4d66afa48a1ad4d1e101108de0c -->
<g id="node16" class="node">
<title>bf05f4d66afa48a1ad4d1e101108de0c</title>
<image xlink:href="/Users/sasaaleksandrov/mesmerize/.venv-diagrams/lib/python3.12/site-packages/resources/aws/integration/simple-queue-service-sqs.png" width="100.8px" height="100.8px" preserveAspectRatio="xMinYMin meet" x="868.625" y="-618.4"/>
<text xml:space="preserve" text-anchor="middle" x="919.02" y="-496.35" font-family="Helvetica,sans-Serif" font-size="11.00" fill="#2d3436">SQS</text>
<text xml:space="preserve" text-anchor="middle" x="919.02" y="-484.35" font-family="Helvetica,sans-Serif" font-size="11.00" fill="#2d3436">req / reply / events</text>
<text xml:space="preserve" text-anchor="middle" x="919.02" y="-472.35" font-family="Helvetica,sans-Serif" font-size="11.00" fill="#2d3436">+ DLQ</text>
</g>
<!-- b1b14e71d17f48b78e3241d7ad99e410&#45;&gt;bf05f4d66afa48a1ad4d1e101108de0c -->
<g id="edge11" class="edge">
<title>b1b14e71d17f48b78e3241d7ad99e410&#45;&gt;bf05f4d66afa48a1ad4d1e101108de0c</title>
<path fill="none" stroke="#7b8894" d="M723.47,-929.7C743.87,-908.85 766.39,-882.82 782.15,-856 822.3,-787.65 804.29,-758.19 839.15,-687 846.01,-672.98 854.27,-658.66 862.83,-645.03"/>
<polygon fill="#7b8894" stroke="#7b8894" points="865.53,-647.31 867.96,-637 859.63,-643.54 865.53,-647.31"/>
</g>
<!-- fbb0e5d39e3343138dabc0d25c300551&#45;&gt;bb1b6d3fd8da4b94a8f1c73ee67149fd -->
<g id="edge20" class="edge">
<title>fbb0e5d39e3343138dabc0d25c300551&#45;&gt;bb1b6d3fd8da4b94a8f1c73ee67149fd</title>
<path fill="none" stroke="#7b8894" d="M723.37,-579.77C744.51,-598.04 767.65,-621.8 782.15,-648 840.51,-753.39 779.86,-808.13 839.15,-913 844.89,-923.16 852.49,-932.74 860.72,-941.44"/>
<polygon fill="#7b8894" stroke="#7b8894" points="858.14,-943.81 867.68,-948.42 863.09,-938.87 858.14,-943.81"/>
</g>
<!-- fbb0e5d39e3343138dabc0d25c300551&#45;&gt;c402684fdf4942c2a7c30594123f3868 -->
<g id="edge13" class="edge">
<title>fbb0e5d39e3343138dabc0d25c300551&#45;&gt;c402684fdf4942c2a7c30594123f3868</title>
<path fill="none" stroke="#7b8894" d="M723.5,-500.1C763,-465.76 818.48,-417.53 860.09,-381.36"/>
<polygon fill="#7b8894" stroke="#7b8894" points="862.35,-384.03 867.6,-374.83 857.76,-378.75 862.35,-384.03"/>
</g>
<!-- 5f19a0059f07465d949ef0f6ae31b48e -->
<g id="node14" class="node">
<title>5f19a0059f07465d949ef0f6ae31b48e</title>
<image xlink:href="/Users/sasaaleksandrov/mesmerize/.venv-diagrams/lib/python3.12/site-packages/resources/aws/database/elasticache.png" width="100.8px" height="100.8px" preserveAspectRatio="xMinYMin meet" x="868.625" y="-172.4"/>
<text xml:space="preserve" text-anchor="middle" x="919.02" y="-55.15" font-family="Helvetica,sans-Serif" font-size="11.00" fill="#2d3436">ElastiCache Redis 7</text>
</g>
<!-- fbb0e5d39e3343138dabc0d25c300551&#45;&gt;5f19a0059f07465d949ef0f6ae31b48e -->
<g id="edge12" class="edge">
<title>fbb0e5d39e3343138dabc0d25c300551&#45;&gt;5f19a0059f07465d949ef0f6ae31b48e</title>
<path fill="none" stroke="#7b8894" d="M708.14,-460.54C738.22,-391.54 785.57,-291.84 839.15,-212 845.89,-201.96 853.64,-191.84 861.59,-182.18"/>
<polygon fill="#7b8894" stroke="#7b8894" points="864.19,-184.53 867.95,-174.62 858.83,-180.02 864.19,-184.53"/>
</g>
<!-- fbb0e5d39e3343138dabc0d25c300551&#45;&gt;bf05f4d66afa48a1ad4d1e101108de0c -->
<g id="edge14" class="edge">
<title>fbb0e5d39e3343138dabc0d25c300551&#45;&gt;bf05f4d66afa48a1ad4d1e101108de0c</title>
<path fill="none" stroke="#7b8894" d="M723.5,-548.06C762.18,-552.02 816.17,-557.56 857.46,-561.79"/>
<polygon fill="#7b8894" stroke="#7b8894" points="856.94,-565.26 867.24,-562.79 857.65,-558.29 856.94,-565.26"/>
</g>
<!-- 9dbc27cfe877472384b20e58e1ebefec -->
<g id="node12" class="node">
<title>9dbc27cfe877472384b20e58e1ebefec</title>
<image xlink:href="/Users/sasaaleksandrov/mesmerize/.venv-diagrams/lib/python3.12/site-packages/resources/aws/compute/elastic-container-service.png" width="100.8px" height="100.8px" preserveAspectRatio="xMinYMin meet" x="622.75" y="-802.4"/>
<text xml:space="preserve" text-anchor="middle" x="673.15" y="-682.75" font-family="Helvetica,sans-Serif" font-size="11.00" fill="#2d3436">Workers</text>
<text xml:space="preserve" text-anchor="middle" x="673.15" y="-670.75" font-family="Helvetica,sans-Serif" font-size="11.00" fill="#2d3436">audit · SQS consumers</text>
</g>
<!-- 9dbc27cfe877472384b20e58e1ebefec&#45;&gt;c402684fdf4942c2a7c30594123f3868 -->
<g id="edge16" class="edge">
<title>9dbc27cfe877472384b20e58e1ebefec&#45;&gt;c402684fdf4942c2a7c30594123f3868</title>
<path fill="none" stroke="#7b8894" d="M723.38,-714.04C744.14,-695.78 766.96,-672.35 782.15,-647 829.22,-568.45 800.58,-532.05 839.15,-449 845.81,-434.65 854.09,-420.08 862.76,-406.3"/>
<polygon fill="#7b8894" stroke="#7b8894" points="865.52,-408.48 867.99,-398.18 859.63,-404.69 865.52,-408.48"/>
</g>
<!-- 9dbc27cfe877472384b20e58e1ebefec&#45;&gt;54ad6885efb04d509062cd80c2736434 -->
<g id="edge18" class="edge">
<title>9dbc27cfe877472384b20e58e1ebefec&#45;&gt;54ad6885efb04d509062cd80c2736434</title>
<path fill="none" stroke="#7b8894" d="M723.5,-759.89C762.18,-766.08 816.17,-774.71 857.46,-781.31"/>
<polygon fill="#7b8894" stroke="#7b8894" points="856.82,-784.76 867.25,-782.88 857.93,-777.85 856.82,-784.76"/>
</g>
<!-- 9dbc27cfe877472384b20e58e1ebefec&#45;&gt;bf05f4d66afa48a1ad4d1e101108de0c -->
<g id="edge15" class="edge">
<title>9dbc27cfe877472384b20e58e1ebefec&#45;&gt;bf05f4d66afa48a1ad4d1e101108de0c</title>
<path fill="none" stroke="#7b8894" d="M723.37,-717.26C749.64,-698.52 782.39,-674.81 811.15,-653 827.17,-640.85 844.3,-627.43 860.05,-614.9"/>
<polygon fill="#7b8894" stroke="#7b8894" points="861.83,-617.96 867.46,-608.99 857.46,-612.49 861.83,-617.96"/>
</g>
<!-- c1a9b7f31bd2428fa9a8c62248f2e108 -->
<g id="node17" class="node">
<title>c1a9b7f31bd2428fa9a8c62248f2e108</title>
<image xlink:href="/Users/sasaaleksandrov/mesmerize/.venv-diagrams/lib/python3.12/site-packages/resources/aws/security/secrets-manager.png" width="100.8px" height="100.8px" preserveAspectRatio="xMinYMin meet" x="363.6" y="-593.4"/>
<text xml:space="preserve" text-anchor="middle" x="414" y="-473.75" font-family="Helvetica,sans-Serif" font-size="11.00" fill="#2d3436">Secrets Manager</text>
<text xml:space="preserve" text-anchor="middle" x="414" y="-461.75" font-family="Helvetica,sans-Serif" font-size="11.00" fill="#2d3436">+ IAM task roles</text>
</g>
<!-- c1a9b7f31bd2428fa9a8c62248f2e108&#45;&gt;b1b14e71d17f48b78e3241d7ad99e410 -->
<g id="edge22" class="edge">
<title>c1a9b7f31bd2428fa9a8c62248f2e108&#45;&gt;b1b14e71d17f48b78e3241d7ad99e410</title>
<path fill="none" stroke="#7b8894" d="M459.57,-625.57C463.98,-634.12 468.33,-642.71 472.4,-651 516.5,-740.75 510.46,-772.28 565.15,-856 579.51,-877.98 597.85,-899.96 615.28,-918.93"/>
<polygon fill="#7b8894" stroke="#7b8894" points="612.53,-921.11 621.9,-926.04 617.65,-916.34 612.53,-921.11"/>
</g>
<!-- c1a9b7f31bd2428fa9a8c62248f2e108&#45;&gt;fbb0e5d39e3343138dabc0d25c300551 -->
<g id="edge23" class="edge">
<title>c1a9b7f31bd2428fa9a8c62248f2e108&#45;&gt;fbb0e5d39e3343138dabc0d25c300551</title>
<path fill="none" stroke="#7b8894" d="M464.28,-543C506.27,-543 566.77,-543 611.69,-543"/>
<polygon fill="#7b8894" stroke="#7b8894" points="611.53,-546.5 621.53,-543 611.53,-539.5 611.53,-546.5"/>
</g>
<!-- 3ca3b4c6fef24f87b7dc3e9718c6fc11 -->
<g id="node18" class="node">
<title>3ca3b4c6fef24f87b7dc3e9718c6fc11</title>
<image xlink:href="/Users/sasaaleksandrov/mesmerize/.venv-diagrams/lib/python3.12/site-packages/resources/aws/management/cloudwatch.png" width="100.8px" height="100.8px" preserveAspectRatio="xMinYMin meet" x="363.6" y="-1011.4"/>
<text xml:space="preserve" text-anchor="middle" x="414" y="-891.75" font-family="Helvetica,sans-Serif" font-size="11.00" fill="#2d3436">Observability</text>
<text xml:space="preserve" text-anchor="middle" x="414" y="-879.75" font-family="Helvetica,sans-Serif" font-size="11.00" fill="#2d3436">(Datadog / approved)</text>
</g>
<!-- 3ca3b4c6fef24f87b7dc3e9718c6fc11&#45;&gt;b1b14e71d17f48b78e3241d7ad99e410 -->
<g id="edge24" class="edge">
<title>3ca3b4c6fef24f87b7dc3e9718c6fc11&#45;&gt;b1b14e71d17f48b78e3241d7ad99e410</title>
<path fill="none" stroke="#7b8894" d="M464.28,-963.68C506.27,-965.97 566.77,-969.26 611.69,-971.71"/>
<polygon fill="#7b8894" stroke="#7b8894" points="611.35,-975.2 621.53,-972.24 611.73,-968.21 611.35,-975.2"/>
</g>
<!-- 3ca3b4c6fef24f87b7dc3e9718c6fc11&#45;&gt;9dbc27cfe877472384b20e58e1ebefec -->
<g id="edge25" class="edge">
<title>3ca3b4c6fef24f87b7dc3e9718c6fc11&#45;&gt;9dbc27cfe877472384b20e58e1ebefec</title>
<path fill="none" stroke="#7b8894" d="M464.22,-904.73C475.64,-892.78 488.07,-880.59 500.4,-870 535.9,-839.52 579.37,-809.71 613.69,-787.69"/>
<polygon fill="#7b8894" stroke="#7b8894" points="615.28,-790.82 621.84,-782.5 611.53,-784.92 615.28,-790.82"/>
</g>
<!-- 8ad4703305dd4a1fadc6d8b3135ffad3 -->
<g id="node19" class="node">
<title>8ad4703305dd4a1fadc6d8b3135ffad3</title>
<image xlink:href="/Users/sasaaleksandrov/mesmerize/.venv-diagrams/lib/python3.12/site-packages/resources/onprem/ci/github-actions.png" width="100.8px" height="100.8px" preserveAspectRatio="xMinYMin meet" x="189.8" y="-1292.4"/>
<text xml:space="preserve" text-anchor="middle" x="240.2" y="-1175.15" font-family="Helvetica,sans-Serif" font-size="11.00" fill="#2d3436">GitHub Actions</text>
</g>
<!-- 8bc536b14efc466cad00b4e693ab2222 -->
<g id="node20" class="node">
<title>8bc536b14efc466cad00b4e693ab2222</title>
<image xlink:href="/Users/sasaaleksandrov/mesmerize/.venv-diagrams/lib/python3.12/site-packages/resources/aws/compute/ec2-container-registry.png" width="100.8px" height="100.8px" preserveAspectRatio="xMinYMin meet" x="363.6" y="-1292.4"/>
<text xml:space="preserve" text-anchor="middle" x="414" y="-1175.15" font-family="Helvetica,sans-Serif" font-size="11.00" fill="#2d3436">ECR</text>
</g>
<!-- 8ad4703305dd4a1fadc6d8b3135ffad3&#45;&gt;8bc536b14efc466cad00b4e693ab2222 -->
<g id="edge26" class="edge">
<title>8ad4703305dd4a1fadc6d8b3135ffad3&#45;&gt;8bc536b14efc466cad00b4e693ab2222</title>
<path fill="none" stroke="#7b8894" d="M290.43,-1242C309.75,-1242 332.12,-1242 352.41,-1242"/>
<polygon fill="#7b8894" stroke="#7b8894" points="352.25,-1245.5 362.25,-1242 352.25,-1238.5 352.25,-1245.5"/>
</g>
<!-- 8bc536b14efc466cad00b4e693ab2222&#45;&gt;b1b14e71d17f48b78e3241d7ad99e410 -->
<g id="edge27" class="edge">
<title>8bc536b14efc466cad00b4e693ab2222&#45;&gt;b1b14e71d17f48b78e3241d7ad99e410</title>
<path fill="none" stroke="#7b8894" d="M464.39,-1212.38C487.78,-1197.11 515.31,-1177.25 537.15,-1156 566.17,-1127.76 593.76,-1092.84 616.34,-1061.23"/>
<polygon fill="#7b8894" stroke="#7b8894" points="619.09,-1063.39 622,-1053.21 613.37,-1059.36 619.09,-1063.39"/>
</g>
<!-- 8bc536b14efc466cad00b4e693ab2222&#45;&gt;fbb0e5d39e3343138dabc0d25c300551 -->
<g id="edge28" class="edge">
<title>8bc536b14efc466cad00b4e693ab2222&#45;&gt;fbb0e5d39e3343138dabc0d25c300551</title>
<path fill="none" stroke="#7b8894" d="M439.59,-1173.71C450.69,-1141.11 463.33,-1101.36 472.4,-1065 518.36,-880.78 470.83,-812.78 565.15,-648 577.82,-625.87 596.47,-605.29 614.66,-588.33"/>
<polygon fill="#7b8894" stroke="#7b8894" points="616.79,-591.12 621.84,-581.81 612.09,-585.94 616.79,-591.12"/>
</g>
<!-- 8bc536b14efc466cad00b4e693ab2222&#45;&gt;9dbc27cfe877472384b20e58e1ebefec -->
<g id="edge29" class="edge">
<title>8bc536b14efc466cad00b4e693ab2222&#45;&gt;9dbc27cfe877472384b20e58e1ebefec</title>
<path fill="none" stroke="#7b8894" d="M437.66,-1173.6C470.02,-1077.92 529.5,-909.79 565.15,-856 578.8,-835.4 597.14,-815.71 614.77,-799.12"/>
<polygon fill="#7b8894" stroke="#7b8894" points="616.7,-802.09 621.69,-792.74 611.96,-796.95 616.7,-802.09"/>
</g>
</g>
</svg>
